<svg xmlns="http://www.w3.org/2000/svg" width="1488" height="1888" viewBox="0 0 1116 1416"><g id="graph0" class="graph" transform="scale(1 1) rotate(0) translate(4 1389)"><title>G</title><polygon fill="#fff" stroke="transparent" points="-4 27 -4 -1389 1112 -1389 1112 27 -4 27"/><text x="554" y="15.2" font-family="Times New Roman,serif" font-size="14" text-anchor="middle">B01: 82</text><g id="node1" class="node"><title>1</title><ellipse cx="833.83" cy="-561.31" fill="none" stroke="#000" rx="27" ry="18"/><text x="833.83" y="-557.61" font-family="Times New Roman,serif" font-size="14" text-anchor="middle">1</text></g><g id="node2" class="node"><title>2</title><ellipse cx="564.7" cy="-299.8" fill="none" stroke="#000" rx="27" ry="18"/><text x="564.7" y="-296.1" font-family="Times New Roman,serif" font-size="14" text-anchor="middle">2</text></g><g id="node8" class="node"><title>8</title><ellipse cx="549.05" cy="-175.03" fill="none" stroke="#000" rx="27" ry="18"/><text x="549.05" y="-171.33" font-family="Times New Roman,serif" font-size="14" text-anchor="middle">8</text></g><g id="edge1" class="edge"><title>2--8</title><path fill="none" stroke="#000" d="M562.42,-281.66C559.46,-258.01 554.3,-216.86 551.33,-193.2"/><text x="553.38" y="-241.23" font-family="Times New Roman,serif" font-size="14" text-anchor="middle">8</text></g><g id="node21" class="node"><title>21</title><ellipse cx="453.74" cy="-452.81" fill="none" stroke="red" rx="27" ry="18"/><text x="453.74" y="-449.11" font-family="Times New Roman,serif" font-size="14" text-anchor="middle">21</text></g><g id="edge2" class="edge"><title>2--21</title><path fill="none" stroke="#000" d="M552.82,-316.18C531.47,-345.63 486.82,-407.19 465.53,-436.56"/><text x="505.67" y="-380.17" font-family="Times New Roman,serif" font-size="14" text-anchor="middle">7</text></g><g id="node32" class="node"><title>32</title><ellipse cx="484.31" cy="-200.86" fill="none" stroke="#000" rx="27" ry="18"/><text x="484.31" y="-197.16" font-family="Times New Roman,serif" font-size="14" text-anchor="middle">32</text></g><g id="edge3" class="edge"><title>2--32</title><path fill="none" stroke="#000" d="M551.78,-283.91C536.78,-265.44 512.18,-235.16 497.19,-216.71"/><text x="520.99" y="-254.11" font-family="Times New Roman,serif" font-size="14" text-anchor="middle">2</text></g><g id="node3" class="node"><title>3</title><ellipse cx="951.08" cy="-91.92" fill="none" stroke="#000" rx="27" ry="18"/><text x="951.08" y="-88.22" font-family="Times New Roman,serif" font-size="14" text-anchor="middle">3</text></g><g id="node4" class="node"><title>4</title><ellipse cx="812.97" cy="-444.08" fill="none" stroke="#000" rx="27" ry="18"/><text x="812.97" y="-440.38" font-family="Times New Roman,serif" font-size="14" text-anchor="middle">4</text></g><g id="node5" class="node"><title>5</title><ellipse cx="748.35" cy="-588.72" fill="none" stroke="#000" rx="27" ry="18"/><text x="748.35" y="-585.02" font-family="Times New Roman,serif" font-size="14" text-anchor="middle">5</text></g><g id="edge4" class="edge"><title>4--5</title><path fill="none" stroke="#000" d="M805.17,-461.53C792.75,-489.33 768.61,-543.37 756.17,-571.21"/><text x="777.17" y="-520.17" font-family="Times New Roman,serif" font-size="14" text-anchor="middle">8</text></g><g id="node6" class="node"><title>6</title><ellipse cx="190.56" cy="-300.66" fill="none" stroke="#000" rx="27" ry="18"/><text x="190.56" y="-296.96" font-family="Times New Roman,serif" font-size="14" text-anchor="middle">6</text></g><g id="node7" class="node"><title>7</title><ellipse cx="426.18" cy="-951.79" fill="none" stroke="red" rx="27" ry="18"/><text x="426.18" y="-948.09" font-family="Times New Roman,serif" font-size="14" text-anchor="middle">7</text></g><g id="node29" class="node"><title>29</title><ellipse cx="349.16" cy="-1108.03" fill="none" stroke="red" rx="27" ry="18"/><text x="349.16" y="-1104.33" font-family="Times New Roman,serif" font-size="14" text-anchor="middle">29</text></g><g id="edge5" class="edge"><title>7--29</title><path fill="none" stroke="red" d="M417.64,-969.11C402.83,-999.14 372.56,-1060.55 357.73,-1090.64"/><text x="384.18" y="-1033.67" fill="red" font-family="Times New Roman,serif" font-size="14" text-anchor="middle">7</text></g><g id="node9" class="node"><title>9</title><ellipse cx="261.29" cy="-1189.01" fill="none" stroke="#000" rx="27" ry="18"/><text x="261.29" y="-1185.31" font-family="Times New Roman,serif" font-size="14" text-anchor="middle">9</text></g><g id="node10" class="node"><title>10</title><ellipse cx="414.52" cy="-647.4" fill="none" stroke="#000" rx="27" ry="18"/><text x="414.52" y="-643.7" font-family="Times New Roman,serif" font-size="14" text-anchor="middle">10</text></g><g id="node11" class="node"><title>11</title><ellipse cx="874.32" cy="-195.47" fill="none" stroke="#000" rx="27" ry="18"/><text x="874.32" y="-191.77" font-family="Times New Roman,serif" font-size="14" text-anchor="middle">11</text></g><g id="edge6" class="edge"><title>11--3</title><path fill="none" stroke="#000" d="M886.31,-179.29C900.65,-159.95 924.51,-127.77 938.92,-108.33"/><text x="909.11" y="-147.61" font-family="Times New Roman,serif" font-size="14" text-anchor="middle">7</text></g><g id="node12" class="node"><title>12</title><ellipse cx="365.59" cy="-358.44" fill="none" stroke="#00f" rx="27" ry="18"/><text x="365.59" y="-354.74" font-family="Times New Roman,serif" font-size="14" text-anchor="middle">12</text></g><g id="node13" class="node"><title>13</title><ellipse cx="758.77" cy="-18.14" fill="none" stroke="#000" rx="27" ry="18"/><text x="758.77" y="-14.44" font-family="Times New Roman,serif" font-size="14" text-anchor="middle">13</text></g><g id="node14" class="node"><title>14</title><ellipse cx="351.76" cy="-851.31" fill="none" stroke="#000" rx="27" ry="18"/><text x="351.76" y="-847.61" font-family="Times New Roman,serif" font-size="14" text-anchor="middle">14</text></g><g id="node31" class="node"><title>31</title><ellipse cx="220.38" cy="-915.28" fill="none" stroke="#000" rx="27" ry="18"/><text x="220.38" y="-911.58" font-family="Times New Roman,serif" font-size="14" text-anchor="middle">31</text></g><g id="edge7" class="edge"><title>14--31</title><path fill="none" stroke="#000" d="M329.77,-862.02C305.52,-873.83 266.72,-892.72 242.44,-904.54"/><text x="282.6" y="-887.08" font-family="Times New Roman,serif" font-size="14" text-anchor="middle">9</text></g><g id="node15" class="node"><title>15</title><ellipse cx="692.81" cy="-868.66" fill="none" stroke="#000" rx="27" ry="18"/><text x="692.81" y="-864.96" font-family="Times New Roman,serif" font-size="14" text-anchor="middle">15</text></g><g id="node16" class="node"><title>16</title><ellipse cx="616.67" cy="-846.33" fill="none" stroke="#000" rx="27" ry="18"/><text x="616.67" y="-842.63" font-family="Times New Roman,serif" font-size="14" text-anchor="middle">16</text></g><g id="node17" class="node"><title>17</title><ellipse cx="301.45" cy="-391.3" fill="none" stroke="#000" rx="27" ry="18"/><text x="301.45" y="-387.6" font-family="Times New Roman,serif" font-size="14" text-anchor="middle">17</text></g><g id="edge8" class="edge"><title>17--6</title><path fill="none" stroke="#000" d="M284.12,-377.14C263.29,-360.11 228.54,-331.71 207.76,-314.73"/><text x="242.44" y="-349.73" font-family="Times New Roman,serif" font-size="14" text-anchor="middle">7</text></g><g id="node42" class="node"><title>42</title><ellipse cx="142.72" cy="-356.76" fill="none" stroke="#000" rx="27" ry="18"/><text x="142.72" y="-353.06" font-family="Times New Roman,serif" font-size="14" text-anchor="middle">42</text></g><g id="edge9" class="edge"><title>17--42</title><path fill="none" stroke="#000" d="M275.59,-385.68C246.07,-379.25 198.07,-368.81 168.56,-362.39"/><text x="218.58" y="-377.83" font-family="Times New Roman,serif" font-size="14" text-anchor="middle">6</text></g><g id="node18" class="node"><title>18</title><ellipse cx="595.2" cy="-434.75" fill="none" stroke="red" rx="27" ry="18"/><text x="595.2" y="-431.05" font-family="Times New Roman,serif" font-size="14" text-anchor="middle">18</text></g><g id="node19" class="node"><title>19</title><ellipse cx="495.51" cy="-340.71" fill="none" stroke="#000" rx="27" ry="18"/><text x="495.51" y="-337.01" font-family="Times New Roman,serif" font-size="14" text-anchor="middle">19</text></g><g id="edge10" class="edge"><title>18--19</title><path fill="none" stroke="#000" d="M579.18,-419.64C560.47,-401.99 529.71,-372.98 511.16,-355.47"/><text x="541.67" y="-391.36" font-family="Times New Roman,serif" font-size="14" text-anchor="middle">2</text></g><g id="node28" class="node"><title>28</title><ellipse cx="744.65" cy="-461.22" fill="none" stroke="red" rx="27" ry="18"/><text x="744.65" y="-457.52" font-family="Times New Roman,serif" font-size="14" text-anchor="middle">28</text></g><g id="edge11" class="edge"><title>18--28</title><path fill="none" stroke="red" d="M621.57,-439.42C648.89,-444.26 691.32,-451.78 718.54,-456.6"/><text x="666.56" y="-451.81" fill="red" font-family="Times New Roman,serif" font-size="14" text-anchor="middle">1</text></g><g id="node43" class="node"><title>43</title><ellipse cx="503.81" cy="-524.59" fill="none" stroke="red" rx="27" ry="18"/><text x="503.81" y="-520.89" font-family="Times New Roman,serif" font-size="14" text-anchor="middle">43</text></g><g id="edge12" class="edge"><title>18--43</title><path fill="none" stroke="red" d="M579.69,-449.99C562.79,-466.61 535.9,-493.04 519.08,-509.57"/><text x="545.89" y="-483.58" fill="red" font-family="Times New Roman,serif" font-size="14" text-anchor="middle">1</text></g><g id="edge13" class="edge"><title>19--2</title><path fill="none" stroke="#000" d="M515.9,-328.66C524.82,-323.38 535.28,-317.2 544.22,-311.91"/><text x="526.56" y="-324.09" font-family="Times New Roman,serif" font-size="14" text-anchor="middle">5</text></g><g id="node20" class="node"><title>20</title><ellipse cx="490.79" cy="-810.76" fill="none" stroke="red" rx="27" ry="18"/><text x="490.79" y="-807.06" font-family="Times New Roman,serif" font-size="14" text-anchor="middle">20</text></g><g id="edge14" class="edge"><title>20--7</title><path fill="none" stroke="red" d="M482.86,-828.06C470.46,-855.12 446.6,-907.2 434.16,-934.36"/><text x="455.01" y="-885.01" fill="red" font-family="Times New Roman,serif" font-size="14" text-anchor="middle">3</text></g><g id="edge15" class="edge"><title>20--14</title><path fill="none" stroke="#000" d="M465.93,-818.01C440.78,-825.35 402.11,-836.63 376.87,-843.99"/><text x="417.9" y="-834.8" font-family="Times New Roman,serif" font-size="14" text-anchor="middle">7</text></g><g id="edge16" class="edge"><title>20--16</title><path fill="none" stroke="#000" d="M515.66,-817.79C537.58,-823.98 569.38,-832.97 591.42,-839.19"/><text x="550.04" y="-832.29" font-family="Times New Roman,serif" font-size="14" text-anchor="middle">8</text></g><g id="node27" class="node"><title>27</title><ellipse cx="550.11" cy="-870.51" fill="none" stroke="#00f" rx="27" ry="18"/><text x="550.11" y="-866.81" font-family="Times New Roman,serif" font-size="14" text-anchor="middle">27</text></g><g id="edge17" class="edge"><title>20--27</title><path fill="none" stroke="red" d="M505.76,-825.84C514.68,-834.83 525.98,-846.21 534.94,-855.23"/><text x="516.85" y="-844.34" fill="red" font-family="Times New Roman,serif" font-size="14" text-anchor="middle">2</text></g><g id="node38" class="node"><title>38</title><ellipse cx="418" cy="-899.5" fill="none" stroke="#000" rx="27" ry="18"/><text x="418" y="-895.8" font-family="Times New Roman,serif" font-size="14" text-anchor="middle">38</text></g><g id="edge18" class="edge"><title>20--38</title><path fill="none" stroke="#000" d="M477.77,-826.63C464.61,-842.68 444.36,-867.37 431.14,-883.48"/><text x="450.96" y="-858.85" font-family="Times New Roman,serif" font-size="14" text-anchor="middle">8</text></g><g id="node40" class="node"><title>40</title><ellipse cx="635.38" cy="-768.88" fill="none" stroke="#000" rx="27" ry="18"/><text x="635.38" y="-765.18" font-family="Times New Roman,serif" font-size="14" text-anchor="middle">40</text></g><g id="edge19" class="edge"><title>20--40</title><path fill="none" stroke="#000" d="M515.64,-803.56C542.13,-795.89 583.82,-783.81 610.36,-776.12"/><text x="556" y="-778.64" font-family="Times New Roman,serif" font-size="14" text-anchor="middle">10</text></g><g id="node48" class="node"><title>48</title><ellipse cx="496.74" cy="-937.38" fill="none" stroke="#00f" rx="27" ry="18"/><text x="496.74" y="-933.68" font-family="Times New Roman,serif" font-size="14" text-anchor="middle">48</text></g><g id="edge20" class="edge"><title>20--48</title><path fill="none" stroke="red" d="M491.64,-828.9C492.77,-852.97 494.76,-895.22 495.89,-919.27"/><text x="490.26" y="-877.89" fill="red" font-family="Times New Roman,serif" font-size="14" text-anchor="middle">2</text></g><g id="edge21" class="edge"><title>21--12</title><path fill="none" stroke="red" d="M439.18,-437.23C422.75,-419.64 396.19,-391.2 379.87,-373.73"/><text x="406.03" y="-409.28" fill="red" font-family="Times New Roman,serif" font-size="14" text-anchor="middle">7</text></g><g id="edge22" class="edge"><title>21--17</title><path fill="none" stroke="#000" d="M430.61,-443.47C401.98,-431.91 353.52,-412.33 324.79,-400.73"/><text x="374.2" y="-425.9" font-family="Times New Roman,serif" font-size="14" text-anchor="middle">5</text></g><g id="edge23" class="edge"><title>21--18</title><path fill="none" stroke="#000" d="M480.34,-449.42C505.47,-446.21 542.98,-441.42 568.23,-438.2"/><text x="517.28" y="-447.61" font-family="Times New Roman,serif" font-size="14" text-anchor="middle">10</text></g><g id="node22" class="node"><title>22</title><ellipse cx="546.22" cy="-619.1" fill="none" stroke="#00f" rx="27" ry="18"/><text x="546.22" y="-615.4" font-family="Times New Roman,serif" font-size="14" text-anchor="middle">22</text></g><g id="edge24" class="edge"><title>22--10</title><path fill="none" stroke="#000" d="M520.51,-624.62C497.46,-629.58 463.78,-636.81 440.61,-641.79"/><text x="477.06" y="-637.01" font-family="Times New Roman,serif" font-size="14" text-anchor="middle">6</text></g><g id="edge25" class="edge"><title>22--20</title><path fill="none" stroke="red" d="M541.1,-636.79C530.57,-673.21 506.56,-756.22 495.97,-792.84"/><text x="515.04" y="-718.61" fill="red" font-family="Times New Roman,serif" font-size="14" text-anchor="middle">2</text></g><g id="edge26" class="edge"><title>22--21</title><path fill="none" stroke="red" d="M536.67,-601.93C518.95,-570.07 481.16,-502.12 463.37,-470.14"/><text x="496.52" y="-539.83" fill="red" font-family="Times New Roman,serif" font-size="14" text-anchor="middle">2</text></g><g id="edge27" class="edge"><title>22--40</title><path fill="none" stroke="#000" d="M556.27,-635.99C573.4,-664.75 608.03,-722.94 625.22,-751.82"/><text x="587.25" y="-697.7" font-family="Times New Roman,serif" font-size="14" text-anchor="middle">8</text></g><g id="edge28" class="edge"><title>22--43</title><path fill="none" stroke="red" d="M538.44,-601.76C530.83,-584.82 519.32,-559.15 511.68,-542.13"/><text x="521.56" y="-575.75" fill="red" font-family="Times New Roman,serif" font-size="14" text-anchor="middle">7</text></g><g id="node23" class="node"><title>23</title><ellipse cx="774.62" cy="-815.33" fill="none" stroke="#000" rx="27" ry="18"/><text x="774.62" y="-811.63" font-family="Times New Roman,serif" font-size="14" text-anchor="middle">23</text></g><g id="node24" class="node"><title>24</title><ellipse cx="679.39" cy="-370.94" fill="none" stroke="#00f" rx="27" ry="18"/><text x="679.39" y="-367.24" font-family="Times New Roman,serif" font-size="14" text-anchor="middle">24</text></g><g id="node25" class="node"><title>25</title><ellipse cx="649.64" cy="-627.72" fill="none" stroke="#000" rx="27" ry="18"/><text x="649.64" y="-624.02" font-family="Times New Roman,serif" font-size="14" text-anchor="middle">25</text></g><g id="node34" class="node"><title>34</title><ellipse cx="562.34" cy="-737.54" fill="none" stroke="#00f" rx="27" ry="18"/><text x="562.34" y="-733.84" font-family="Times New Roman,serif" font-size="14" text-anchor="middle">34</text></g><g id="edge29" class="edge"><title>25--34</title><path fill="none" stroke="#000" d="M636.76,-643.92C620.16,-664.81 591.48,-700.88 574.99,-721.62"/><text x="602.38" y="-686.57" font-family="Times New Roman,serif" font-size="14" text-anchor="middle">4</text></g><g id="node26" class="node"><title>26</title><ellipse cx="1080.63" cy="-458.51" fill="none" stroke="#000" rx="27" ry="18"/><text x="1080.63" y="-454.81" font-family="Times New Roman,serif" font-size="14" text-anchor="middle">26</text></g><g id="edge30" class="edge"><title>27--34</title><path fill="none" stroke="red" d="M551.78,-852.3C554.13,-826.84 558.35,-780.88 560.69,-755.53"/><text x="552.73" y="-807.72" fill="red" font-family="Times New Roman,serif" font-size="14" text-anchor="middle">4</text></g><g id="edge31" class="edge"><title>28--5</title><path fill="none" stroke="#000" d="M745.18,-479.22C745.87,-503.38 747.11,-546.08 747.82,-570.4"/><text x="743" y="-528.61" font-family="Times New Roman,serif" font-size="14" text-anchor="middle">8</text></g><g id="edge32" class="edge"><title>28--24</title><path fill="none" stroke="red" d="M732.68,-444.66C720.91,-428.38 703.03,-403.65 691.29,-387.4"/><text x="708.48" y="-419.83" fill="red" font-family="Times New Roman,serif" font-size="14" text-anchor="middle">5</text></g><g id="edge33" class="edge"><title>29--9</title><path fill="none" stroke="#000" d="M333.04,-1122.88C317.18,-1137.5 293.12,-1159.67 277.3,-1174.25"/><text x="301.67" y="-1152.37" font-family="Times New Roman,serif" font-size="14" text-anchor="middle">5</text></g><g id="node33" class="node"><title>33</title><ellipse cx="311.9" cy="-1235.62" fill="none" stroke="red" rx="27" ry="18"/><text x="311.9" y="-1231.92" font-family="Times New Roman,serif" font-size="14" text-anchor="middle">33</text></g><g id="edge34" class="edge"><title>29--33</title><path fill="none" stroke="red" d="M343.98,-1125.77C336.9,-1150.01 324.27,-1193.24 317.16,-1217.62"/><text x="327.07" y="-1175.5" fill="red" font-family="Times New Roman,serif" font-size="14" text-anchor="middle">7</text></g><g id="node30" class="node"><title>30</title><ellipse cx="700.48" cy="-733.43" fill="none" stroke="#000" rx="27" ry="18"/><text x="700.48" y="-729.73" font-family="Times New Roman,serif" font-size="14" text-anchor="middle">30</text></g><g id="edge35" class="edge"><title>30--5</title><path fill="none" stroke="#000" d="M706.35,-715.69C715.54,-687.91 733.21,-634.47 742.43,-606.61"/><text x="720.89" y="-664.95" font-family="Times New Roman,serif" font-size="14" text-anchor="middle">4</text></g><g id="edge36" class="edge"><title>30--15</title><path fill="none" stroke="#000" d="M699.45,-751.67C697.98,-777.48 695.32,-824.39 693.85,-850.28"/><text x="693.15" y="-804.77" font-family="Times New Roman,serif" font-size="14" text-anchor="middle">1</text></g><g id="edge37" class="edge"><title>30--16</title><path fill="none" stroke="#000" d="M688.47,-749.61C672.54,-771.07 644.58,-808.74 628.66,-830.18"/><text x="655.06" y="-793.69" font-family="Times New Roman,serif" font-size="14" text-anchor="middle">2</text></g><g id="node35" class="node"><title>35</title><ellipse cx="257.45" cy="-1366.95" fill="none" stroke="#00f" rx="27" ry="18"/><text x="257.45" y="-1363.25" font-family="Times New Roman,serif" font-size="14" text-anchor="middle">35</text></g><g id="edge38" class="edge"><title>33--35</title><path fill="none" stroke="red" d="M304.67,-1253.06C294.25,-1278.18 275.14,-1324.28 264.71,-1349.43"/><text x="281.19" y="-1305.05" fill="red" font-family="Times New Roman,serif" font-size="14" text-anchor="middle">3</text></g><g id="edge39" class="edge"><title>34--20</title><path fill="none" stroke="#000" d="M547.51,-752.71C535.23,-765.28 517.87,-783.05 505.59,-795.61"/><text x="519.55" y="-777.96" font-family="Times New Roman,serif" font-size="14" text-anchor="middle">10</text></g><g id="edge40" class="edge"><title>34--30</title><path fill="none" stroke="#000" d="M589.63,-736.73C613.85,-736.01 649.05,-734.96 673.25,-734.24"/><text x="627.94" y="-739.28" font-family="Times New Roman,serif" font-size="14" text-anchor="middle">2</text></g><g id="node36" class="node"><title>36</title><ellipse cx="745.01" cy="-311.46" fill="none" stroke="red" rx="27" ry="18"/><text x="745.01" y="-307.76" font-family="Times New Roman,serif" font-size="14" text-anchor="middle">36</text></g><g id="edge41" class="edge"><title>36--2</title><path fill="none" stroke="#000" d="M718.01,-309.71C683.92,-307.51 625.62,-303.74 591.58,-301.54"/><text x="651.3" y="-309.43" font-family="Times New Roman,serif" font-size="14" text-anchor="middle">8</text></g><g id="edge42" class="edge"><title>36--4</title><path fill="none" stroke="#000" d="M753.75,-328.53C766.73,-353.85 790.96,-401.13 804.04,-426.66"/><text x="775.39" y="-366.39" font-family="Times New Roman,serif" font-size="14" text-anchor="middle">6</text></g><g id="edge43" class="edge"><title>36--11</title><path fill="none" stroke="#000" d="M761.12,-297C785.9,-274.78 833.1,-232.44 858,-210.11"/><text x="806.06" y="-257.35" font-family="Times New Roman,serif" font-size="14" text-anchor="middle">9</text></g><g id="node39" class="node"><title>39</title><ellipse cx="848.92" cy="-303.44" fill="none" stroke="#000" rx="27" ry="18"/><text x="848.92" y="-299.74" font-family="Times New Roman,serif" font-size="14" text-anchor="middle">39</text></g><g id="edge44" class="edge"><title>36--39</title><path fill="none" stroke="#000" d="M772.04,-309.37C787.43,-308.18 806.65,-306.7 822.02,-305.51"/><text x="793.53" y="-311.24" font-family="Times New Roman,serif" font-size="14" text-anchor="middle">7</text></g><g id="node49" class="node"><title>49</title><ellipse cx="787.2" cy="-211.89" fill="none" stroke="#00f" rx="27" ry="18"/><text x="787.2" y="-208.19" font-family="Times New Roman,serif" font-size="14" text-anchor="middle">49</text></g><g id="edge45" class="edge"><title>36--49</title><path fill="none" stroke="red" d="M752.36,-294.11C760.05,-275.95 772.08,-247.58 779.8,-229.37"/><text x="762.58" y="-265.54" fill="red" font-family="Times New Roman,serif" font-size="14" text-anchor="middle">9</text></g><g id="node50" class="node"><title>50</title><ellipse cx="737.18" cy="-164.44" fill="none" stroke="#000" rx="27" ry="18"/><text x="737.18" y="-160.74" font-family="Times New Roman,serif" font-size="14" text-anchor="middle">50</text></g><g id="edge46" class="edge"><title>36--50</title><path fill="none" stroke="#000" d="M744.05,-293.43C742.55,-265.21 739.66,-210.92 738.15,-182.61"/><text x="734.1" y="-241.82" font-family="Times New Roman,serif" font-size="14" text-anchor="middle">10</text></g><g id="node37" class="node"><title>37</title><ellipse cx="994.85" cy="-482.24" fill="none" stroke="#00f" rx="27" ry="18"/><text x="994.85" y="-478.54" font-family="Times New Roman,serif" font-size="14" text-anchor="middle">37</text></g><g id="edge47" class="edge"><title>40--15</title><path fill="none" stroke="#000" d="M645.12,-785.8C655.68,-804.15 672.44,-833.27 683.02,-851.65"/><text x="657.07" y="-822.53" font-family="Times New Roman,serif" font-size="14" text-anchor="middle">10</text></g><g id="edge48" class="edge"><title>40--23</title><path fill="none" stroke="#000" d="M659.63,-776.97C685.03,-785.44 724.7,-798.68 750.17,-807.18"/><text x="701.4" y="-795.87" font-family="Times New Roman,serif" font-size="14" text-anchor="middle">3</text></g><g id="node41" class="node"><title>41</title><ellipse cx="694.43" cy="-514.59" fill="none" stroke="red" rx="27" ry="18"/><text x="694.43" y="-510.89" font-family="Times New Roman,serif" font-size="14" text-anchor="middle">41</text></g><g id="edge49" class="edge"><title>41--1</title><path fill="none" stroke="#000" d="M718.71,-522.73C744.14,-531.25 783.86,-544.56 809.36,-553.11"/><text x="760.54" y="-541.72" font-family="Times New Roman,serif" font-size="14" text-anchor="middle">5</text></g><g id="edge50" class="edge"><title>41--22</title><path fill="none" stroke="red" d="M675.66,-527.82C647.15,-547.93 593.26,-585.93 564.84,-605.97"/><text x="616.75" y="-570.7" fill="red" font-family="Times New Roman,serif" font-size="14" text-anchor="middle">8</text></g><g id="edge51" class="edge"><title>41--25</title><path fill="none" stroke="#000" d="M687.43,-532.27C679.02,-553.52 664.98,-588.97 656.59,-610.17"/><text x="668.51" y="-575.02" font-family="Times New Roman,serif" font-size="14" text-anchor="middle">5</text></g><g id="edge52" class="edge"><title>41--36</title><path fill="none" stroke="red" d="M698.92,-496.56C708.52,-458.01 730.94,-367.96 740.53,-329.44"/><text x="716.22" y="-416.8" fill="red" font-family="Times New Roman,serif" font-size="14" text-anchor="middle">2</text></g><g id="node44" class="node"><title>44</title><ellipse cx="781.13" cy="-389.79" fill="none" stroke="#000" rx="27" ry="18"/><text x="781.13" y="-386.09" font-family="Times New Roman,serif" font-size="14" text-anchor="middle">44</text></g><g id="edge53" class="edge"><title>41--44</title><path fill="none" stroke="#000" d="M705.95,-498.02C722.53,-474.15 752.96,-430.34 769.57,-406.43"/><text x="734.26" y="-441.02" font-family="Times New Roman,serif" font-size="14" text-anchor="middle">7</text></g><g id="node47" class="node"><title>47</title><ellipse cx="873.51" cy="-502.69" fill="none" stroke="red" rx="27" ry="18"/><text x="873.51" y="-498.99" font-family="Times New Roman,serif" font-size="14" text-anchor="middle">47</text></g><g id="edge54" class="edge"><title>41--47</title><path fill="none" stroke="red" d="M721.63,-512.78C755.39,-510.54 812.61,-506.73 846.35,-504.49"/><text x="780.49" y="-497.44" fill="red" font-family="Times New Roman,serif" font-size="14" text-anchor="middle">7</text></g><g id="edge55" class="edge"><title>42--6</title><path fill="none" stroke="#000" d="M156.3,-340.84C162.82,-333.19 170.61,-324.06 177.11,-316.43"/><text x="163.2" y="-317.44" font-family="Times New Roman,serif" font-size="14" text-anchor="middle">9</text></g><g id="node46" class="node"><title>46</title><ellipse cx="26.97" cy="-317.72" fill="none" stroke="#000" rx="27" ry="18"/><text x="26.97" y="-314.02" font-family="Times New Roman,serif" font-size="14" text-anchor="middle">46</text></g><g id="edge56" class="edge"><title>42--46</title><path fill="none" stroke="#000" d="M118.45,-348.58C98.7,-341.91 70.95,-332.55 51.21,-325.89"/><text x="77.83" y="-341.03" font-family="Times New Roman,serif" font-size="14" text-anchor="middle">10</text></g><g id="edge57" class="edge"><title>44--24</title><path fill="none" stroke="#000" d="M754.93,-384.94C739.74,-382.12 720.68,-378.59 705.5,-375.78"/><text x="726.72" y="-384.16" font-family="Times New Roman,serif" font-size="14" text-anchor="middle">8</text></g><g id="edge58" class="edge"><title>44--39</title><path fill="none" stroke="#000" d="M793.88,-373.55C806,-358.11 824.12,-335.02 836.22,-319.61"/><text x="811.55" y="-350.38" font-family="Times New Roman,serif" font-size="14" text-anchor="middle">3</text></g><g id="node45" class="node"><title>45</title><ellipse cx="925.34" cy="-452.66" fill="none" stroke="#000" rx="27" ry="18"/><text x="925.34" y="-448.96" font-family="Times New Roman,serif" font-size="14" text-anchor="middle">45</text></g><g id="edge59" class="edge"><title>45--26</title><path fill="none" stroke="#000" d="M952.39,-453.68C980.8,-454.75 1025.23,-456.43 1053.63,-457.49"/><text x="999.51" y="-444.39" font-family="Times New Roman,serif" font-size="14" text-anchor="middle">6</text></g><g id="edge60" class="edge"><title>45--28</title><path fill="none" stroke="#000" d="M898.29,-453.95C864.13,-455.56 805.7,-458.33 771.59,-459.95"/><text x="838.44" y="-460.75" font-family="Times New Roman,serif" font-size="14" text-anchor="middle">1</text></g><g id="edge61" class="edge"><title>47--37</title><path fill="none" stroke="red" d="M899.84,-498.25C920.19,-494.82 948.23,-490.1 968.57,-486.67"/><text x="930.7" y="-496.26" fill="red" font-family="Times New Roman,serif" font-size="14" text-anchor="middle">3</text></g><g id="edge62" class="edge"><title>47--45</title><path fill="none" stroke="#000" d="M889.06,-487.68C895.62,-481.35 903.24,-473.99 909.8,-467.66"/><text x="892.43" y="-466.47" font-family="Times New Roman,serif" font-size="14" text-anchor="middle">10</text></g><g id="edge63" class="edge"><title>50--13</title><path fill="none" stroke="#000" d="M739.83,-146.5C743.97,-118.42 751.94,-64.39 756.1,-36.22"/><text x="744.46" y="-95.16" font-family="Times New Roman,serif" font-size="14" text-anchor="middle">1</text></g></g></svg>