<svg xmlns="http://www.w3.org/2000/svg" width="968pt" height="1120pt" viewBox="0 0 968 1120"><g id="graph0" class="graph" transform="scale(1 1) rotate(0) translate(4 1093)"><title>G</title><polygon fill="#fff" stroke="transparent" points="-4 27 -4 -1093 964 -1093 964 27 -4 27"/><text x="480" y="15.2" font-family="Times New Roman,serif" font-size="14" text-anchor="middle">B06: 127</text><g id="node1" class="node"><title>1</title><ellipse cx="728.63" cy="-989.34" fill="none" stroke="#00f" rx="27" ry="18"/><text x="728.63" y="-985.64" font-family="Times New Roman,serif" font-size="14" text-anchor="middle">1</text></g><g id="node11" class="node"><title>11</title><ellipse cx="625.94" cy="-1071.02" fill="none" stroke="#00f" rx="27" ry="18"/><text x="625.94" y="-1067.32" font-family="Times New Roman,serif" font-size="14" text-anchor="middle">11</text></g><g id="edge1" class="edge"><title>1--11</title><path fill="none" stroke="red" d="M711.21,-1003.2C692.33,-1018.22 662.37,-1042.05 643.45,-1057.1"/><text x="673.83" y="-1033.95" fill="red" font-family="Times New Roman,serif" font-size="14" text-anchor="middle">8</text></g><g id="node28" class="node"><title>28</title><ellipse cx="738.27" cy="-859.97" fill="none" stroke="#00f" rx="27" ry="18"/><text x="738.27" y="-856.27" font-family="Times New Roman,serif" font-size="14" text-anchor="middle">28</text></g><g id="edge2" class="edge"><title>1--28</title><path fill="none" stroke="red" d="M729.97,-971.36C731.8,-946.78 735.07,-902.94 736.91,-878.23"/><text x="729.94" y="-928.59" fill="red" font-family="Times New Roman,serif" font-size="14" text-anchor="middle">8</text></g><g id="node32" class="node"><title>32</title><ellipse cx="858.35" cy="-994.99" fill="none" stroke="red" rx="27" ry="18"/><text x="858.35" y="-991.29" font-family="Times New Roman,serif" font-size="14" text-anchor="middle">32</text></g><g id="edge3" class="edge"><title>1--32</title><path fill="none" stroke="#000" d="M755.83,-990.53C777.96,-991.49 809.06,-992.85 831.19,-993.81"/><text x="790.01" y="-995.97" font-family="Times New Roman,serif" font-size="14" text-anchor="middle">8</text></g><g id="node44" class="node"><title>44</title><ellipse cx="771.49" cy="-779.47" fill="none" stroke="#00f" rx="27" ry="18"/><text x="771.49" y="-775.77" font-family="Times New Roman,serif" font-size="14" text-anchor="middle">44</text></g><g id="edge4" class="edge"><title>1--44</title><path fill="none" stroke="#000" d="M732.29,-971.45C740.38,-931.8 759.75,-836.93 767.84,-797.32"/><text x="746.56" y="-888.18" font-family="Times New Roman,serif" font-size="14" text-anchor="middle">9</text></g><g id="node2" class="node"><title>2</title><ellipse cx="498.31" cy="-674.82" fill="none" stroke="#000" rx="27" ry="18"/><text x="498.31" y="-671.12" font-family="Times New Roman,serif" font-size="14" text-anchor="middle">2</text></g><g id="node4" class="node"><title>4</title><ellipse cx="678.9" cy="-703.57" fill="none" stroke="red" rx="27" ry="18"/><text x="678.9" y="-699.87" font-family="Times New Roman,serif" font-size="14" text-anchor="middle">4</text></g><g id="edge5" class="edge"><title>2--4</title><path fill="none" stroke="#000" d="M524.96,-679.06C559.2,-684.51 618.29,-693.92 652.44,-699.35"/><text x="585.2" y="-693.01" font-family="Times New Roman,serif" font-size="14" text-anchor="middle">8</text></g><g id="node10" class="node"><title>10</title><ellipse cx="471.23" cy="-851.99" fill="none" stroke="#00f" rx="27" ry="18"/><text x="471.23" y="-848.29" font-family="Times New Roman,serif" font-size="14" text-anchor="middle">10</text></g><g id="edge6" class="edge"><title>2--10</title><path fill="none" stroke="#000" d="M495.57,-692.78C490.38,-726.74 479.18,-799.98 473.99,-833.98"/><text x="477.78" y="-767.18" font-family="Times New Roman,serif" font-size="14" text-anchor="middle">10</text></g><g id="node31" class="node"><title>31</title><ellipse cx="260.36" cy="-683.27" fill="none" stroke="red" rx="27" ry="18"/><text x="260.36" y="-679.57" font-family="Times New Roman,serif" font-size="14" text-anchor="middle">31</text></g><g id="edge7" class="edge"><title>2--31</title><path fill="none" stroke="#000" d="M471.02,-675.79C425.12,-677.42 333.03,-680.69 287.34,-682.32"/><text x="375.68" y="-682.85" font-family="Times New Roman,serif" font-size="14" text-anchor="middle">3</text></g><g id="node36" class="node"><title>36</title><ellipse cx="537.03" cy="-541.55" fill="none" stroke="#000" rx="27" ry="18"/><text x="537.03" y="-537.85" font-family="Times New Roman,serif" font-size="14" text-anchor="middle">36</text></g><g id="edge8" class="edge"><title>2--36</title><path fill="none" stroke="#000" d="M503.46,-657.12C510.86,-631.63 524.45,-584.85 531.86,-559.32"/><text x="510.66" y="-612.02" font-family="Times New Roman,serif" font-size="14" text-anchor="middle">10</text></g><g id="node3" class="node"><title>3</title><ellipse cx="711.5" cy="-360.36" fill="none" stroke="red" rx="27" ry="18"/><text x="711.5" y="-356.66" font-family="Times New Roman,serif" font-size="14" text-anchor="middle">3</text></g><g id="node24" class="node"><title>24</title><ellipse cx="618.68" cy="-557.62" fill="none" stroke="red" rx="27" ry="18"/><text x="618.68" y="-553.92" font-family="Times New Roman,serif" font-size="14" text-anchor="middle">24</text></g><g id="edge9" class="edge"><title>3--24</title><path fill="none" stroke="red" d="M703.27,-377.86C685.61,-415.39 644.29,-503.2 626.76,-540.44"/><text x="661.51" y="-462.95" fill="red" font-family="Times New Roman,serif" font-size="14" text-anchor="middle">4</text></g><g id="node30" class="node"><title>30</title><ellipse cx="847.56" cy="-193.79" fill="none" stroke="#00f" rx="27" ry="18"/><text x="847.56" y="-190.09" font-family="Times New Roman,serif" font-size="14" text-anchor="middle">30</text></g><g id="edge10" class="edge"><title>3--30</title><path fill="none" stroke="#000" d="M724.55,-344.39C750.49,-312.63 808.28,-241.88 834.35,-209.96"/><text x="775.95" y="-280.97" font-family="Times New Roman,serif" font-size="14" text-anchor="middle">5</text></g><g id="node48" class="node"><title>48</title><ellipse cx="550.25" cy="-213.16" fill="none" stroke="#00f" rx="27" ry="18"/><text x="550.25" y="-209.46" font-family="Times New Roman,serif" font-size="14" text-anchor="middle">48</text></g><g id="edge11" class="edge"><title>3--48</title><path fill="none" stroke="red" d="M695.45,-345.7C664.54,-317.49 597.1,-255.92 566.24,-227.76"/><text x="627.35" y="-290.53" fill="red" font-family="Times New Roman,serif" font-size="14" text-anchor="middle">6</text></g><g id="node7" class="node"><title>7</title><ellipse cx="921.27" cy="-756.77" fill="none" stroke="#00f" rx="27" ry="18"/><text x="921.27" y="-753.07" font-family="Times New Roman,serif" font-size="14" text-anchor="middle">7</text></g><g id="edge12" class="edge"><title>4--7</title><path fill="none" stroke="#000" d="M704.84,-709.26C751.49,-719.5 849,-740.9 895.52,-751.12"/><text x="796.68" y="-733.99" font-family="Times New Roman,serif" font-size="14" text-anchor="middle">9</text></g><g id="node9" class="node"><title>9</title><ellipse cx="622.63" cy="-492.68" fill="none" stroke="#00f" rx="27" ry="18"/><text x="622.63" y="-488.98" font-family="Times New Roman,serif" font-size="14" text-anchor="middle">9</text></g><g id="edge13" class="edge"><title>4--9</title><path fill="none" stroke="red" d="M674.1,-685.59C663.47,-645.74 638.03,-550.41 627.41,-510.61"/><text x="647.26" y="-601.9" fill="red" font-family="Times New Roman,serif" font-size="14" text-anchor="middle">7</text></g><g id="edge14" class="edge"><title>4--28</title><path fill="none" stroke="#000" d="M685.59,-721.2C697,-751.24 720.06,-812 731.51,-842.16"/><text x="705.05" y="-785.48" font-family="Times New Roman,serif" font-size="14" text-anchor="middle">9</text></g><g id="edge15" class="edge"><title>4--36</title><path fill="none" stroke="#000" d="M665.04,-687.74C637.84,-656.68 577.8,-588.12 550.73,-557.21"/><text x="604.39" y="-626.27" font-family="Times New Roman,serif" font-size="14" text-anchor="middle">4</text></g><g id="node5" class="node"><title>5</title><ellipse cx="27.08" cy="-883.24" fill="none" stroke="#00f" rx="27" ry="18"/><text x="27.08" y="-879.54" font-family="Times New Roman,serif" font-size="14" text-anchor="middle">5</text></g><g id="node20" class="node"><title>20</title><ellipse cx="193.66" cy="-789.37" fill="none" stroke="red" rx="27" ry="18"/><text x="193.66" y="-785.67" font-family="Times New Roman,serif" font-size="14" text-anchor="middle">20</text></g><g id="edge16" class="edge"><title>5--20</title><path fill="none" stroke="red" d="M47.84,-871.54C79.84,-853.5 140.89,-819.11 172.9,-801.07"/><text x="106.87" y="-840.11" fill="red" font-family="Times New Roman,serif" font-size="14" text-anchor="middle">4</text></g><g id="node6" class="node"><title>6</title><ellipse cx="662.18" cy="-643.71" fill="none" stroke="#00f" rx="27" ry="18"/><text x="662.18" y="-640.01" font-family="Times New Roman,serif" font-size="14" text-anchor="middle">6</text></g><g id="node13" class="node"><title>13</title><ellipse cx="838.42" cy="-736.78" fill="none" stroke="red" rx="27" ry="18"/><text x="838.42" y="-733.08" font-family="Times New Roman,serif" font-size="14" text-anchor="middle">13</text></g><g id="edge17" class="edge"><title>6--13</title><path fill="none" stroke="red" d="M683.44,-654.94C717.31,-672.83 783.16,-707.6 817.09,-725.51"/><text x="746.76" y="-694.03" fill="red" font-family="Times New Roman,serif" font-size="14" text-anchor="middle">1</text></g><g id="node23" class="node"><title>23</title><ellipse cx="855.03" cy="-561.57" fill="none" stroke="#00f" rx="27" ry="18"/><text x="855.03" y="-557.87" font-family="Times New Roman,serif" font-size="14" text-anchor="middle">23</text></g><g id="edge18" class="edge"><title>6--23</title><path fill="none" stroke="red" d="M685.06,-633.97C722.18,-618.16 795.08,-587.11 832.18,-571.31"/><text x="755.12" y="-591.44" fill="red" font-family="Times New Roman,serif" font-size="14" text-anchor="middle">6</text></g><g id="edge19" class="edge"><title>6--28</title><path fill="none" stroke="red" d="M668.41,-661.41C682.71,-702.06 717.78,-801.74 732.06,-842.33"/><text x="696.73" y="-755.67" fill="red" font-family="Times New Roman,serif" font-size="14" text-anchor="middle">6</text></g><g id="edge20" class="edge"><title>7--13</title><path fill="none" stroke="red" d="M895.51,-750.55C885.44,-748.12 873.92,-745.34 863.88,-742.92"/><text x="876.19" y="-750.54" fill="red" font-family="Times New Roman,serif" font-size="14" text-anchor="middle">3</text></g><g id="node8" class="node"><title>8</title><ellipse cx="856.93" cy="-873.05" fill="none" stroke="#000" rx="27" ry="18"/><text x="856.93" y="-869.35" font-family="Times New Roman,serif" font-size="14" text-anchor="middle">8</text></g><g id="edge21" class="edge"><title>8--4</title><path fill="none" stroke="#000" d="M841.13,-858.01C807.26,-825.77 728.02,-750.33 694.41,-718.33"/><text x="764.27" y="-791.97" font-family="Times New Roman,serif" font-size="14" text-anchor="middle">7</text></g><g id="edge22" class="edge"><title>8--7</title><path fill="none" stroke="#000" d="M866.42,-855.89C878.59,-833.91 899.55,-796.02 911.74,-774"/><text x="885.58" y="-818.74" font-family="Times New Roman,serif" font-size="14" text-anchor="middle">3</text></g><g id="edge23" class="edge"><title>8--13</title><path fill="none" stroke="#000" d="M854.47,-854.96C850.93,-828.89 844.43,-781.05 840.89,-754.95"/><text x="844.18" y="-808.75" font-family="Times New Roman,serif" font-size="14" text-anchor="middle">4</text></g><g id="edge24" class="edge"><title>9--6</title><path fill="none" stroke="red" d="M627.32,-510.6C634.93,-539.67 649.89,-596.77 657.49,-625.82"/><text x="645.91" y="-572.01" fill="red" font-family="Times New Roman,serif" font-size="14" text-anchor="middle">2</text></g><g id="node17" class="node"><title>17</title><ellipse cx="410.01" cy="-449.15" fill="none" stroke="#00f" rx="27" ry="18"/><text x="410.01" y="-445.45" font-family="Times New Roman,serif" font-size="14" text-anchor="middle">17</text></g><g id="edge25" class="edge"><title>9--17</title><path fill="none" stroke="red" d="M596.56,-487.34C555.64,-478.96 476.81,-462.82 435.96,-454.46"/><text x="512.76" y="-474.7" fill="red" font-family="Times New Roman,serif" font-size="14" text-anchor="middle">5</text></g><g id="node49" class="node"><title>49</title><ellipse cx="692.9" cy="-277.59" fill="none" stroke="#00f" rx="27" ry="18"/><text x="692.9" y="-273.89" font-family="Times New Roman,serif" font-size="14" text-anchor="middle">49</text></g><g id="edge26" class="edge"><title>9--49</title><path fill="none" stroke="#000" d="M628.38,-475.08C641.56,-434.74 673.82,-336 687.07,-295.44"/><text x="654.23" y="-389.06" font-family="Times New Roman,serif" font-size="14" text-anchor="middle">9</text></g><g id="node42" class="node"><title>42</title><ellipse cx="395.32" cy="-721.31" fill="none" stroke="#00f" rx="27" ry="18"/><text x="395.32" y="-717.61" font-family="Times New Roman,serif" font-size="14" text-anchor="middle">42</text></g><g id="edge27" class="edge"><title>10--42</title><path fill="none" stroke="red" d="M461.46,-835.17C446.97,-810.22 419.91,-763.63 405.3,-738.48"/><text x="436.88" y="-790.62" fill="red" font-family="Times New Roman,serif" font-size="14" text-anchor="middle">8</text></g><g id="node18" class="node"><title>18</title><ellipse cx="622.26" cy="-969.01" fill="none" stroke="#00f" rx="27" ry="18"/><text x="622.26" y="-965.31" font-family="Times New Roman,serif" font-size="14" text-anchor="middle">18</text></g><g id="edge28" class="edge"><title>11--18</title><path fill="none" stroke="red" d="M625.29,-1052.78C624.62,-1034.22 623.58,-1005.6 622.92,-987.09"/><text x="620.6" y="-1023.74" fill="red" font-family="Times New Roman,serif" font-size="14" text-anchor="middle">7</text></g><g id="node12" class="node"><title>12</title><ellipse cx="829.75" cy="-425.22" fill="none" stroke="#00f" rx="27" ry="18"/><text x="829.75" y="-421.52" font-family="Times New Roman,serif" font-size="14" text-anchor="middle">12</text></g><g id="edge29" class="edge"><title>12--3</title><path fill="none" stroke="#000" d="M808.88,-413.77C787.4,-401.99 754.11,-383.73 732.56,-371.91"/><text x="767.22" y="-396.64" font-family="Times New Roman,serif" font-size="14" text-anchor="middle">6</text></g><g id="node40" class="node"><title>40</title><ellipse cx="932.56" cy="-565.93" fill="none" stroke="red" rx="27" ry="18"/><text x="932.56" y="-562.23" font-family="Times New Roman,serif" font-size="14" text-anchor="middle">40</text></g><g id="edge30" class="edge"><title>12--40</title><path fill="none" stroke="red" d="M841.75,-441.64C861.56,-468.75 900.88,-522.57 920.64,-549.62"/><text x="877.69" y="-499.43" fill="red" font-family="Times New Roman,serif" font-size="14" text-anchor="middle">2</text></g><g id="node37" class="node"><title>37</title><ellipse cx="809.93" cy="-928.69" fill="none" stroke="#000" rx="27" ry="18"/><text x="809.93" y="-924.99" font-family="Times New Roman,serif" font-size="14" text-anchor="middle">37</text></g><g id="edge31" class="edge"><title>13--37</title><path fill="none" stroke="#000" d="M835.74,-754.83C830.31,-791.41 818.06,-873.89 812.62,-910.54"/><text x="820.68" y="-836.49" font-family="Times New Roman,serif" font-size="14" text-anchor="middle">6</text></g><g id="node14" class="node"><title>14</title><ellipse cx="504.02" cy="-466.4" fill="none" stroke="#000" rx="27" ry="18"/><text x="504.02" y="-462.7" font-family="Times New Roman,serif" font-size="14" text-anchor="middle">14</text></g><g id="node27" class="node"><title>27</title><ellipse cx="592.06" cy="-394.42" fill="none" stroke="red" rx="27" ry="18"/><text x="592.06" y="-390.72" font-family="Times New Roman,serif" font-size="14" text-anchor="middle">27</text></g><g id="edge32" class="edge"><title>14--27</title><path fill="none" stroke="#000" d="M521.41,-452.18C536.85,-439.56 559.28,-421.22 574.7,-408.61"/><text x="544.56" y="-434.19" font-family="Times New Roman,serif" font-size="14" text-anchor="middle">4</text></g><g id="edge33" class="edge"><title>14--48</title><path fill="none" stroke="#000" d="M507.35,-448.18C515.88,-401.46 538.46,-277.75 546.96,-231.21"/><text x="523.65" y="-343.5" font-family="Times New Roman,serif" font-size="14" text-anchor="middle">7</text></g><g id="node15" class="node"><title>15</title><ellipse cx="515" cy="-600.95" fill="none" stroke="#000" rx="27" ry="18"/><text x="515" y="-597.25" font-family="Times New Roman,serif" font-size="14" text-anchor="middle">15</text></g><g id="node35" class="node"><title>35</title><ellipse cx="759.38" cy="-629.4" fill="none" stroke="#00f" rx="27" ry="18"/><text x="759.38" y="-625.7" font-family="Times New Roman,serif" font-size="14" text-anchor="middle">35</text></g><g id="edge34" class="edge"><title>15--35</title><path fill="none" stroke="#000" d="M541.62,-604.05C588.5,-609.51 685.3,-620.78 732.42,-626.27"/><text x="633.52" y="-603.96" font-family="Times New Roman,serif" font-size="14" text-anchor="middle">7</text></g><g id="node16" class="node"><title>16</title><ellipse cx="521.7" cy="-321.31" fill="none" stroke="#000" rx="27" ry="18"/><text x="521.7" y="-317.61" font-family="Times New Roman,serif" font-size="14" text-anchor="middle">16</text></g><g id="edge35" class="edge"><title>16--14</title><path fill="none" stroke="#000" d="M519.5,-339.4C516.11,-367.2 509.66,-420.15 506.25,-448.09"/><text x="509.38" y="-397.54" font-family="Times New Roman,serif" font-size="14" text-anchor="middle">1</text></g><g id="edge36" class="edge"><title>17--15</title><path fill="none" stroke="#000" d="M421.45,-465.68C441.64,-494.88 483.39,-555.25 503.58,-584.43"/><text x="455.51" y="-528.86" font-family="Times New Roman,serif" font-size="14" text-anchor="middle">10</text></g><g id="node19" class="node"><title>19</title><ellipse cx="824.27" cy="-643.53" fill="none" stroke="#00f" rx="27" ry="18"/><text x="824.27" y="-639.83" font-family="Times New Roman,serif" font-size="14" text-anchor="middle">19</text></g><g id="edge37" class="edge"><title>19--7</title><path fill="none" stroke="#000" d="M837.76,-659.27C856.19,-680.78 889.05,-719.16 907.58,-740.79"/><text x="869.17" y="-703.83" font-family="Times New Roman,serif" font-size="14" text-anchor="middle">9</text></g><g id="edge38" class="edge"><title>19--24</title><path fill="none" stroke="red" d="M801.09,-633.84C761.5,-617.3 681.31,-583.79 641.78,-567.27"/><text x="717.93" y="-604.36" fill="red" font-family="Times New Roman,serif" font-size="14" text-anchor="middle">1</text></g><g id="node21" class="node"><title>21</title><ellipse cx="472.26" cy="-214.89" fill="none" stroke="#00f" rx="27" ry="18"/><text x="472.26" y="-211.19" font-family="Times New Roman,serif" font-size="14" text-anchor="middle">21</text></g><g id="node22" class="node"><title>22</title><ellipse cx="680.71" cy="-573.94" fill="none" stroke="#000" rx="27" ry="18"/><text x="680.71" y="-570.24" font-family="Times New Roman,serif" font-size="14" text-anchor="middle">22</text></g><g id="edge39" class="edge"><title>22--2</title><path fill="none" stroke="#000" d="M659.79,-585.51C624.7,-604.92 554.39,-643.81 519.27,-663.23"/><text x="586.03" y="-628.17" font-family="Times New Roman,serif" font-size="14" text-anchor="middle">6</text></g><g id="edge40" class="edge"><title>22--12</title><path fill="none" stroke="#000" d="M695.82,-558.86C724.39,-530.36 786,-468.87 814.6,-440.34"/><text x="751.71" y="-503.4" font-family="Times New Roman,serif" font-size="14" text-anchor="middle">7</text></g><g id="edge41" class="edge"><title>22--27</title><path fill="none" stroke="#000" d="M672.21,-556.73C655.26,-522.41 617.46,-445.85 600.53,-411.58"/><text x="643.37" y="-472.95" font-family="Times New Roman,serif" font-size="14" text-anchor="middle">10</text></g><g id="node41" class="node"><title>41</title><ellipse cx="564.94" cy="-726.31" fill="none" stroke="#000" rx="27" ry="18"/><text x="564.94" y="-722.61" font-family="Times New Roman,serif" font-size="14" text-anchor="middle">41</text></g><g id="edge42" class="edge"><title>22--41</title><path fill="none" stroke="#000" d="M668.32,-590.25C646.04,-619.57 599.46,-680.88 577.24,-710.12"/><text x="619.28" y="-653.98" font-family="Times New Roman,serif" font-size="14" text-anchor="middle">6</text></g><g id="node47" class="node"><title>47</title><ellipse cx="831.21" cy="-358.08" fill="none" stroke="#00f" rx="27" ry="18"/><text x="831.21" y="-354.38" font-family="Times New Roman,serif" font-size="14" text-anchor="middle">47</text></g><g id="edge43" class="edge"><title>22--47</title><path fill="none" stroke="#000" d="M692.27,-557.36C720.35,-517.08 791.91,-414.45 819.82,-374.42"/><text x="752.54" y="-469.69" font-family="Times New Roman,serif" font-size="14" text-anchor="middle">9</text></g><g id="edge44" class="edge"><title>24--36</title><path fill="none" stroke="#000" d="M592.39,-552.45C582.98,-550.6 572.37,-548.51 562.98,-546.66"/><text x="574.19" y="-553.36" font-family="Times New Roman,serif" font-size="14" text-anchor="middle">6</text></g><g id="edge45" class="edge"><title>24--42</title><path fill="none" stroke="red" d="M600.4,-571.02C558.41,-601.79 455.47,-677.23 413.54,-707.96"/><text x="503.47" y="-643.29" fill="red" font-family="Times New Roman,serif" font-size="14" text-anchor="middle">3</text></g><g id="node25" class="node"><title>25</title><ellipse cx="785.84" cy="-568.48" fill="none" stroke="#000" rx="27" ry="18"/><text x="785.84" y="-564.78" font-family="Times New Roman,serif" font-size="14" text-anchor="middle">25</text></g><g id="edge46" class="edge"><title>25--3</title><path fill="none" stroke="#000" d="M779.51,-550.74C765.46,-511.42 731.86,-417.34 717.83,-378.06"/><text x="745.17" y="-468.2" font-family="Times New Roman,serif" font-size="14" text-anchor="middle">4</text></g><g id="edge47" class="edge"><title>25--4</title><path fill="none" stroke="#000" d="M773.16,-584.51C752.57,-610.51 712.14,-661.58 691.57,-687.56"/><text x="725.36" y="-639.84" font-family="Times New Roman,serif" font-size="14" text-anchor="middle">10</text></g><g id="node26" class="node"><title>26</title><ellipse cx="399.85" cy="-894.01" fill="none" stroke="#000" rx="27" ry="18"/><text x="399.85" y="-890.31" font-family="Times New Roman,serif" font-size="14" text-anchor="middle">26</text></g><g id="edge48" class="edge"><title>26--41</title><path fill="none" stroke="#000" d="M414.79,-878.83C446.06,-847.06 518.12,-773.87 549.68,-741.82"/><text x="478.73" y="-814.12" font-family="Times New Roman,serif" font-size="14" text-anchor="middle">8</text></g><g id="edge49" class="edge"><title>27--6</title><path fill="none" stroke="red" d="M597.1,-412.35C610.04,-458.34 644.29,-580.13 657.18,-625.95"/><text x="623.64" y="-522.95" fill="red" font-family="Times New Roman,serif" font-size="14" text-anchor="middle">5</text></g><g id="edge50" class="edge"><title>27--21</title><path fill="none" stroke="red" d="M581,-377.85C558.18,-343.65 506.09,-265.58 483.29,-231.41"/><text x="528.65" y="-293.43" fill="red" font-family="Times New Roman,serif" font-size="14" text-anchor="middle">2</text></g><g id="edge51" class="edge"><title>27--49</title><path fill="none" stroke="#000" d="M605.66,-378.66C624.91,-356.36 659.89,-315.83 679.2,-293.47"/><text x="638.93" y="-339.87" font-family="Times New Roman,serif" font-size="14" text-anchor="middle">5</text></g><g id="node45" class="node"><title>45</title><ellipse cx="792.4" cy="-1028.16" fill="none" stroke="#000" rx="27" ry="18"/><text x="792.4" y="-1024.46" font-family="Times New Roman,serif" font-size="14" text-anchor="middle">45</text></g><g id="edge52" class="edge"><title>28--45</title><path fill="none" stroke="#000" d="M743.96,-877.65C754.35,-909.96 776.3,-978.15 786.7,-1010.46"/><text x="761.83" y="-947.86" font-family="Times New Roman,serif" font-size="14" text-anchor="middle">7</text></g><g id="node29" class="node"><title>29</title><ellipse cx="635.89" cy="-856.85" fill="none" stroke="#000" rx="27" ry="18"/><text x="635.89" y="-853.15" font-family="Times New Roman,serif" font-size="14" text-anchor="middle">29</text></g><g id="edge53" class="edge"><title>29--1</title><path fill="none" stroke="#000" d="M647.45,-873.36C665.22,-898.75 699.07,-947.11 716.93,-972.62"/><text x="678.69" y="-926.79" font-family="Times New Roman,serif" font-size="14" text-anchor="middle">6</text></g><g id="edge54" class="edge"><title>29--11</title><path fill="none" stroke="#000" d="M635.05,-875.11C633.17,-915.57 628.67,-1012.39 626.79,-1052.81"/><text x="623.92" y="-952.76" font-family="Times New Roman,serif" font-size="14" text-anchor="middle">10</text></g><g id="edge55" class="edge"><title>29--22</title><path fill="none" stroke="#000" d="M638.77,-838.72C646.86,-787.62 669.8,-642.83 677.86,-591.92"/><text x="654.81" y="-719.12" font-family="Times New Roman,serif" font-size="14" text-anchor="middle">1</text></g><g id="node33" class="node"><title>33</title><ellipse cx="411.84" cy="-775.7" fill="none" stroke="#000" rx="27" ry="18"/><text x="411.84" y="-772" font-family="Times New Roman,serif" font-size="14" text-anchor="middle">33</text></g><g id="edge56" class="edge"><title>29--33</title><path fill="none" stroke="#000" d="M611.92,-848.16C568.79,-832.54 478.65,-799.9 435.65,-784.32"/><text x="520.28" y="-820.04" font-family="Times New Roman,serif" font-size="14" text-anchor="middle">5</text></g><g id="edge57" class="edge"><title>29--37</title><path fill="none" stroke="#000" d="M659,-866.39C692.29,-880.13 753.38,-905.35 786.72,-919.11"/><text x="715.86" y="-896.55" font-family="Times New Roman,serif" font-size="14" text-anchor="middle">10</text></g><g id="node50" class="node"><title>50</title><ellipse cx="533.23" cy="-897.1" fill="none" stroke="#00f" rx="27" ry="18"/><text x="533.23" y="-893.4" font-family="Times New Roman,serif" font-size="14" text-anchor="middle">50</text></g><g id="edge58" class="edge"><title>29--50</title><path fill="none" stroke="#000" d="M612.6,-865.98C595.91,-872.52 573.53,-881.3 556.79,-887.86"/><text x="581.19" y="-880.72" font-family="Times New Roman,serif" font-size="14" text-anchor="middle">4</text></g><g id="edge59" class="edge"><title>30--47</title><path fill="none" stroke="red" d="M845.75,-212C842.6,-243.58 836.18,-308.16 833.03,-339.79"/><text x="835.89" y="-279.7" fill="red" font-family="Times New Roman,serif" font-size="14" text-anchor="middle">4</text></g><g id="edge60" class="edge"><title>31--20</title><path fill="none" stroke="red" d="M249.65,-700.32C237.12,-720.24 216.54,-752.97 204.13,-772.72"/><text x="223.39" y="-740.32" fill="red" font-family="Times New Roman,serif" font-size="14" text-anchor="middle">3</text></g><g id="edge61" class="edge"><title>32--8</title><path fill="none" stroke="#000" d="M858.14,-976.74C857.87,-953.75 857.41,-914.48 857.14,-891.43"/><text x="854.14" y="-937.88" font-family="Times New Roman,serif" font-size="14" text-anchor="middle">8</text></g><g id="node38" class="node"><title>38</title><ellipse cx="657.26" cy="-1018.49" fill="none" stroke="#00f" rx="27" ry="18"/><text x="657.26" y="-1014.79" font-family="Times New Roman,serif" font-size="14" text-anchor="middle">38</text></g><g id="edge62" class="edge"><title>32--38</title><path fill="none" stroke="red" d="M831.65,-998.11C793.19,-1002.61 722.6,-1010.85 684.08,-1015.35"/><text x="761.36" y="-1010.53" fill="red" font-family="Times New Roman,serif" font-size="14" text-anchor="middle">2</text></g><g id="edge63" class="edge"><title>32--44</title><path fill="none" stroke="red" d="M851.24,-977.36C834.91,-936.84 794.88,-837.51 778.57,-797.05"/><text x="811.41" y="-891" fill="red" font-family="Times New Roman,serif" font-size="14" text-anchor="middle">1</text></g><g id="edge64" class="edge"><title>33--6</title><path fill="none" stroke="#000" d="M433.19,-764.45C480.48,-739.51 593.64,-679.85 640.89,-654.94"/><text x="533.54" y="-713.49" font-family="Times New Roman,serif" font-size="14" text-anchor="middle">3</text></g><g id="edge65" class="edge"><title>33--10</title><path fill="none" stroke="#000" d="M424.44,-791.88C434.52,-804.82 448.58,-822.89 458.66,-835.83"/><text x="438.05" y="-817.65" font-family="Times New Roman,serif" font-size="14" text-anchor="middle">9</text></g><g id="edge66" class="edge"><title>33--15</title><path fill="none" stroke="#000" d="M421.73,-758.94C441.4,-725.63 485.22,-651.39 504.98,-617.91"/><text x="459.86" y="-692.23" font-family="Times New Roman,serif" font-size="14" text-anchor="middle">5</text></g><g id="edge67" class="edge"><title>33--20</title><path fill="none" stroke="#000" d="M384.65,-777.41C342.73,-780.03 262.77,-785.04 220.85,-787.67"/><text x="299.25" y="-786.34" font-family="Times New Roman,serif" font-size="14" text-anchor="middle">8</text></g><g id="edge68" class="edge"><title>33--26</title><path fill="none" stroke="#000" d="M410.02,-793.67C407.77,-815.91 403.95,-853.56 401.69,-875.87"/><text x="402.35" y="-838.57" font-family="Times New Roman,serif" font-size="14" text-anchor="middle">2</text></g><g id="node34" class="node"><title>34</title><ellipse cx="206.37" cy="-869.47" fill="none" stroke="#000" rx="27" ry="18"/><text x="206.37" y="-865.77" font-family="Times New Roman,serif" font-size="14" text-anchor="middle">34</text></g><g id="edge69" class="edge"><title>33--34</title><path fill="none" stroke="#000" d="M389.46,-785.91C349.94,-803.95 268.23,-841.24 228.72,-859.27"/><text x="302.09" y="-826.39" font-family="Times New Roman,serif" font-size="14" text-anchor="middle">10</text></g><g id="edge70" class="edge"><title>33--41</title><path fill="none" stroke="#000" d="M436.44,-767.77C465.01,-758.55 511.86,-743.43 540.41,-734.22"/><text x="484.92" y="-739.79" font-family="Times New Roman,serif" font-size="14" text-anchor="middle">7</text></g><g id="edge71" class="edge"><title>34--5</title><path fill="none" stroke="#000" d="M179.53,-871.53C145.73,-874.13 87.99,-878.56 54.1,-881.16"/><text x="109.81" y="-880.15" font-family="Times New Roman,serif" font-size="14" text-anchor="middle">10</text></g><g id="edge72" class="edge"><title>35--23</title><path fill="none" stroke="red" d="M778.28,-616C795.15,-604.03 819.73,-586.61 836.5,-574.72"/><text x="803.89" y="-599.16" fill="red" font-family="Times New Roman,serif" font-size="14" text-anchor="middle">6</text></g><g id="edge73" class="edge"><title>35--44</title><path fill="none" stroke="red" d="M760.84,-647.51C763.16,-676.35 767.69,-732.42 770.02,-761.3"/><text x="761.93" y="-708.21" fill="red" font-family="Times New Roman,serif" font-size="14" text-anchor="middle">3</text></g><g id="edge74" class="edge"><title>36--16</title><path fill="none" stroke="#000" d="M535.77,-523.53C532.9,-482.23 525.86,-381.12 522.97,-339.59"/><text x="525.87" y="-435.36" font-family="Times New Roman,serif" font-size="14" text-anchor="middle">2</text></g><g id="edge75" class="edge"><title>38--10</title><path fill="none" stroke="#000" d="M641.08,-1004C605.9,-972.51 522.78,-898.12 487.51,-866.55"/><text x="557.29" y="-939.08" font-family="Times New Roman,serif" font-size="14" text-anchor="middle">10</text></g><g id="edge76" class="edge"><title>38--37</title><path fill="none" stroke="#000" d="M677.53,-1006.56C706.73,-989.39 760.32,-957.87 789.57,-940.66"/><text x="730.05" y="-962.41" font-family="Times New Roman,serif" font-size="14" text-anchor="middle">1</text></g><g id="node39" class="node"><title>39</title><ellipse cx="496.43" cy="-18.07" fill="none" stroke="#000" rx="27" ry="18"/><text x="496.43" y="-14.37" font-family="Times New Roman,serif" font-size="14" text-anchor="middle">39</text></g><g id="edge77" class="edge"><title>40--13</title><path fill="none" stroke="#000" d="M923.19,-582.93C905.14,-615.68 865.77,-687.15 847.75,-719.84"/><text x="881.97" y="-655.19" font-family="Times New Roman,serif" font-size="14" text-anchor="middle">7</text></g><g id="edge78" class="edge"><title>40--35</title><path fill="none" stroke="red" d="M908.84,-574.62C875.77,-586.74 816.15,-608.59 783.08,-620.71"/><text x="842.46" y="-601.47" fill="red" font-family="Times New Roman,serif" font-size="14" text-anchor="middle">1</text></g><g id="edge79" class="edge"><title>41--10</title><path fill="none" stroke="#000" d="M552.88,-742.48C534.99,-766.48 501.58,-811.28 483.54,-835.48"/><text x="514.71" y="-792.78" font-family="Times New Roman,serif" font-size="14" text-anchor="middle">7</text></g><g id="edge80" class="edge"><title>41--14</title><path fill="none" stroke="#000" d="M560.76,-708.44C549.63,-660.96 519.4,-532.01 508.24,-484.39"/><text x="531" y="-585.21" font-family="Times New Roman,serif" font-size="14" text-anchor="middle">2</text></g><g id="edge81" class="edge"><title>41--18</title><path fill="none" stroke="#000" d="M569.16,-744.15C579.76,-789.04 607.44,-906.22 618.04,-951.13"/><text x="590.1" y="-851.44" font-family="Times New Roman,serif" font-size="14" text-anchor="middle">5</text></g><g id="edge82" class="edge"><title>42--2</title><path fill="none" stroke="#000" d="M417.93,-711.11C435.1,-703.36 458.61,-692.74 475.77,-685"/><text x="443.35" y="-701.85" font-family="Times New Roman,serif" font-size="14" text-anchor="middle">9</text></g><g id="edge83" class="edge"><title>42--31</title><path fill="none" stroke="red" d="M370.26,-714.24C346.01,-707.41 309.49,-697.12 285.3,-690.3"/><text x="324.28" y="-706.07" fill="red" font-family="Times New Roman,serif" font-size="14" text-anchor="middle">1</text></g><g id="edge84" class="edge"><title>42--33</title><path fill="none" stroke="#000" d="M400.73,-739.12C402.58,-745.19 404.64,-751.98 406.48,-758.04"/><text x="400.11" y="-752.38" font-family="Times New Roman,serif" font-size="14" text-anchor="middle">6</text></g><g id="node46" class="node"><title>46</title><ellipse cx="333.77" cy="-900.94" fill="none" stroke="#00f" rx="27" ry="18"/><text x="333.77" y="-897.24" font-family="Times New Roman,serif" font-size="14" text-anchor="middle">46</text></g><g id="edge85" class="edge"><title>42--46</title><path fill="none" stroke="#000" d="M389.31,-738.86C377.54,-773.2 351.59,-848.92 339.81,-883.32"/><text x="361.06" y="-814.89" font-family="Times New Roman,serif" font-size="14" text-anchor="middle">8</text></g><g id="node43" class="node"><title>43</title><ellipse cx="776.94" cy="-97.62" fill="none" stroke="#00f" rx="27" ry="18"/><text x="776.94" y="-93.92" font-family="Times New Roman,serif" font-size="14" text-anchor="middle">43</text></g><g id="edge86" class="edge"><title>43--30</title><path fill="none" stroke="red" d="M788.92,-113.93C801.91,-131.62 822.51,-159.68 835.52,-177.4"/><text x="808.72" y="-149.47" fill="red" font-family="Times New Roman,serif" font-size="14" text-anchor="middle">2</text></g><g id="edge87" class="edge"><title>44--8</title><path fill="none" stroke="#000" d="M785.59,-794.92C801.43,-812.26 826.96,-840.23 842.8,-857.58"/><text x="810.7" y="-830.05" font-family="Times New Roman,serif" font-size="14" text-anchor="middle">6</text></g><g id="edge88" class="edge"><title>44--19</title><path fill="none" stroke="red" d="M778.28,-761.98C788.41,-735.87 807.38,-687.02 817.5,-660.95"/><text x="794.39" y="-715.26" fill="red" font-family="Times New Roman,serif" font-size="14" text-anchor="middle">7</text></g><g id="edge89" class="edge"><title>44--25</title><path fill="none" stroke="#000" d="M772.71,-761.48C775.42,-721.72 781.88,-626.72 784.6,-586.73"/><text x="775.16" y="-677.9" font-family="Times New Roman,serif" font-size="14" text-anchor="middle">4</text></g><g id="edge90" class="edge"><title>44--41</title><path fill="none" stroke="#000" d="M746.16,-772.95C706.41,-762.72 629.83,-743.01 590.15,-732.8"/><text x="664.66" y="-756.67" font-family="Times New Roman,serif" font-size="14" text-anchor="middle">9</text></g><g id="edge91" class="edge"><title>45--8</title><path fill="none" stroke="#000" d="M799.68,-1010.67C812.07,-980.88 837.14,-920.62 849.58,-890.72"/><text x="821.13" y="-954.49" font-family="Times New Roman,serif" font-size="14" text-anchor="middle">9</text></g><g id="edge92" class="edge"><title>45--18</title><path fill="none" stroke="#000" d="M768.38,-1019.81C736.05,-1008.57 678.84,-988.68 646.43,-977.41"/><text x="703.91" y="-1002.41" font-family="Times New Roman,serif" font-size="14" text-anchor="middle">5</text></g><g id="edge93" class="edge"><title>45--37</title><path fill="none" stroke="#000" d="M795.61,-1009.91C798.78,-991.97 803.58,-964.73 806.73,-946.82"/><text x="794.17" y="-967.17" font-family="Times New Roman,serif" font-size="14" text-anchor="middle">10</text></g><g id="edge94" class="edge"><title>48--16</title><path fill="none" stroke="#000" d="M545.54,-231.02C540.25,-251.06 531.72,-283.38 526.42,-303.43"/><text x="532.48" y="-271.03" font-family="Times New Roman,serif" font-size="14" text-anchor="middle">5</text></g><g id="edge95" class="edge"><title>48--39</title><path fill="none" stroke="#000" d="M545.28,-195.16C535.03,-157.99 511.63,-73.16 501.39,-36.03"/><text x="519.84" y="-119.39" font-family="Times New Roman,serif" font-size="14" text-anchor="middle">5</text></g><g id="edge96" class="edge"><title>49--12</title><path fill="none" stroke="red" d="M707.29,-293.11C733.5,-321.39 788.77,-381.01 815.15,-409.46"/><text x="757.72" y="-355.09" fill="red" font-family="Times New Roman,serif" font-size="14" text-anchor="middle">1</text></g><g id="edge97" class="edge"><title>49--16</title><path fill="none" stroke="#000" d="M667.64,-284.04C635.27,-292.31 579.49,-306.56 547.07,-314.84"/><text x="603.86" y="-303.24" font-family="Times New Roman,serif" font-size="14" text-anchor="middle">6</text></g><g id="edge98" class="edge"><title>49--43</title><path fill="none" stroke="red" d="M700.96,-260.33C717.03,-225.93 752.87,-149.18 768.91,-114.82"/><text x="731.44" y="-191.38" fill="red" font-family="Times New Roman,serif" font-size="14" text-anchor="middle">1</text></g><g id="edge99" class="edge"><title>50--4</title><path fill="none" stroke="red" d="M545.39,-880.93C572.82,-844.5 639.18,-756.34 666.66,-719.82"/><text x="602.53" y="-804.18" fill="red" font-family="Times New Roman,serif" font-size="14" text-anchor="middle">1</text></g><g id="edge100" class="edge"><title>50--46</title><path fill="none" stroke="red" d="M505.91,-897.62C467.82,-898.36 399.16,-899.68 361.07,-900.41"/><text x="429.99" y="-902.82" fill="red" font-family="Times New Roman,serif" font-size="14" text-anchor="middle">6</text></g></g></svg>